<?xml version="1.0" encoding="UTF-8"?>
<!-- Created with Inkscape (http://www.inkscape.org/) -->
<svg width="329.58" height="52.2" version="1.1" viewBox="0 0 87.201 13.811" xmlns="http://www.w3.org/2000/svg" xmlns:cc="http://creativecommons.org/ns#" xmlns:dc="http://purl.org/dc/elements/1.1/" xmlns:rdf="http://www.w3.org/1999/02/22-rdf-syntax-ns#">
 <metadata>
  <rdf:RDF>
   <cc:Work rdf:about="">
    <dc:format>image/svg+xml</dc:format>
    <dc:type rdf:resource="http://purl.org/dc/dcmitype/StillImage"/>
    <dc:title/>
   </cc:Work>
  </rdf:RDF>
 </metadata>
 <g transform="translate(-46.254 -139.53)">
  <g stroke-width=".26458" aria-label="Old Mission Winery">
   <g fill="#963699">
    <path d="m53.958 143q0.55033 0.42334 0.87842 1.1112 0.33867 0.67734 0.33867 1.5875 0 0.91017-0.37042 1.7039-0.37042 0.79375-0.96308 1.2594-1.2171 0.9525-2.6988 0.9525-1.4711 0-2.5188-0.9525-1.0478-0.96309-1.0478-2.6247 0-0.9525 0.30692-1.7145 0.3175-0.762 0.84667-1.2277 1.1007-0.97366 2.6035-0.97366 1.4817 0 2.6247 0.87841zm-5.6832 3.0586q0 1.3652 0.77258 2.1802 0.78317 0.81492 2.0743 0.81492 1.4922 0 2.3918-0.91017 0.91017-0.92075 0.91017-2.3178 0-1.4076-0.91017-2.2437-0.91017-0.83609-2.2119-0.83609t-2.1696 0.85725q-0.85725 0.84667-0.85725 2.4553z"/>
    <path d="m56.589 143.07q0-1.0478-0.28575-1.4076 0.13758-0.20108 0.47625-0.20108 0.0635 0 0.13758 0.0106 0.26458 0.26459 0.26458 1.5346 0 0.68791-0.0635 1.5981-0.127 1.5875-0.127 2.3283 0 2.0002 0.77258 2.0002 0 0 0.39158-0.0741 0.09525 0 0.15875 0.0847-0.03175 0.381-0.62442 0.381-0.58208 0-0.89958-0.34925-0.3175-0.35984-0.40217-0.889-0.07408-0.53975-0.07408-0.889t0.01058-0.762q0.01058-0.42334 0.09525-1.2065 0.16933-1.5875 0.16933-2.159z"/>
    <path d="m62.741 140.92q-0.40217 3.6407-0.40217 5.1964 0 1.5452 0.28575 3.0903-0.21167 0.21167-0.37042 0.21167t-0.26458-0.0423q-0.22225-0.78316-0.26458-1.7039-0.254 0.40216-0.381 0.5715-0.11642 0.16933-0.41275 0.49741-0.53975 0.635-1.2806 0.635-0.56092 0-0.81492-0.51858-0.24342-0.52917-0.24342-1.3441 0-0.8255 0.17992-1.5663 0.1905-0.75141 0.64558-1.2912 0.45508-0.55034 1.1218-0.55034 0.40217 0 0.74083 0.16934 0.33867 0.16933 0.46567 0.45508 0.02117-0.28575 0.04233-0.87842 0.02117-0.59266 0.04233-1.0478 0.03175-0.46566 0.09525-0.94191 0.11642-1.016 0.51858-1.016 0.13758 0 0.29633 0.0741zm-1.2382 4.191q-0.127-0.23283-0.34925-0.33867-0.22225-0.11641-0.59267-0.11641-0.35983 0-0.67733 0.41275-0.62442 0.81491-0.62442 2.3601 0 0.49742 0.15875 0.99483 0.15875 0.48684 0.46567 0.48684 0.4445 0 0.86783-0.58209 0.42333-0.58208 0.65617-1.3335 0.23283-0.762 0.23283-1.3652 0-0.28575-0.13758-0.51858z"/>
    <path d="m66.522 145.19q0-1.7145-0.17992-3.1327 0-0.22225 0.30692-0.22225t0.81492 0.59266q0.508 0.58209 0.97367 1.2806 0.46567 0.6985 0.93133 1.2912 0.47625 0.58209 0.67733 0.58209t0.64558-0.61384q0.45508-0.62441 0.889-1.3547 0.4445-0.74084 0.9525-1.3547 0.51858-0.62442 0.8255-0.62442 0.3175 0 0.3175 0.16934 0.09525 1.3018 0.09525 2.3283t-0.01058 1.6722q-0.01058 0.635-0.02117 0.93133 0 0.28575-0.03175 1.3229-0.03175 1.0266-0.03175 1.2065-0.15875 0.22225-0.43392 0.22225-0.11642 0-0.22225-0.0635-0.0635-1.3018-0.0635-3.0692t0.03175-3.6618q-0.21167 0.16933-0.60325 0.79375-0.381 0.61383-0.74083 1.2277-0.35983 0.60325-0.81492 1.1007-0.45508 0.48683-0.84667 0.48683t-0.89958-0.5715q-0.49742-0.5715-1.1112-1.5452-0.60325-0.98425-0.79375-1.2277 0.05292 0.889 0.05292 1.8521 0 0.9525-0.01058 1.3335-0.01058 1.6933-0.0635 3.0798-0.16933 0.22225-0.52917 0.22225-0.09525 0-0.17992-0.0318 0 0 0.07408-4.2228z"/>
    <path d="m75.946 141.61q-0.01058 0.24341-0.01058 0.53975 0 0.29633 0.03175 0.61383-0.14817 0.16933-0.40217 0.16933-0.3175 0-0.3175-0.508 0-0.0212 0-0.15875 0-0.13758 0-0.24341 0.01058-0.11642 0.04233-0.26459 0.07408-0.254 0.32808-0.254 0.254 0 0.32808 0.10584zm-0.67733 5.1858q0-2.0743 0.21167-2.3918 0.07408-0.11642 0.17992-0.11642 0.10583 0 0.34925 0.11642-0.05292 0.89958-0.05292 1.9579 0 0 0.02117 2.3389 0 0.32808-0.14817 0.46567-0.13758 0.127-0.26458 0.127-0.11642 0-0.24342-0.0635-0.05292-1.3758-0.05292-2.4342z"/>
    <path d="m79.96 145.17q-0.09525-0.24342-0.35983-0.381-0.26458-0.13759-0.65617-0.13759-0.39158 0-0.74083 0.23284-0.33867 0.23283-0.33867 0.62441 0 0.39159 0.3175 0.62442 0.32808 0.22225 0.78317 0.33867 0.46567 0.11641 0.93133 0.254 0.46567 0.127 0.78317 0.43391 0.32808 0.29634 0.32808 0.78317 0 0.70908-0.59267 1.0795-0.58208 0.37042-1.4076 0.37042-0.48683 0-1.2806-0.26459-0.78317-0.26458-0.78317-0.635 0-0.27516 0.46567-0.27516 0.13758 0 0.35983 0.16933 0.67733 0.49742 1.3864 0.49742 0.381 0 0.65617-0.127 0.508-0.24342 0.508-0.78317 0-0.32808-0.32808-0.52917-0.3175-0.20108-0.78317-0.3175-0.45508-0.11641-0.92075-0.254-0.46567-0.13758-0.79375-0.45508-0.3175-0.32808-0.3175-0.8255 0-0.64558 0.58208-1.0478 0.58208-0.40217 1.4393-0.40217 0.58208 0 1.0478 0.30692 0.47625 0.29633 0.47625 0.86783 0 0.381-0.43392 0.381-0.17992 0-0.24342-0.0635-0.05292-0.0635-0.0635-0.22225 0-0.16933-0.02117-0.24341z"/>
    <path d="m84.569 145.17q-0.09525-0.24342-0.35983-0.381-0.26458-0.13759-0.65617-0.13759-0.39158 0-0.74083 0.23284-0.33867 0.23283-0.33867 0.62441 0 0.39159 0.3175 0.62442 0.32808 0.22225 0.78317 0.33867 0.46567 0.11641 0.93133 0.254 0.46567 0.127 0.78317 0.43391 0.32808 0.29634 0.32808 0.78317 0 0.70908-0.59267 1.0795-0.58208 0.37042-1.4076 0.37042-0.48683 0-1.2806-0.26459-0.78317-0.26458-0.78317-0.635 0-0.27516 0.46567-0.27516 0.13758 0 0.35983 0.16933 0.67733 0.49742 1.3864 0.49742 0.381 0 0.65617-0.127 0.508-0.24342 0.508-0.78317 0-0.32808-0.32808-0.52917-0.3175-0.20108-0.78317-0.3175-0.45508-0.11641-0.92075-0.254-0.46567-0.13758-0.79375-0.45508-0.3175-0.32808-0.3175-0.8255 0-0.64558 0.58208-1.0478 0.58208-0.40217 1.4393-0.40217 0.58208 0 1.0478 0.30692 0.47625 0.29633 0.47625 0.86783 0 0.381-0.43392 0.381-0.17992 0-0.24342-0.0635-0.05292-0.0635-0.0635-0.22225 0-0.16933-0.02117-0.24341z"/>
    <path d="m87.274 141.61q-0.01058 0.24341-0.01058 0.53975 0 0.29633 0.03175 0.61383-0.14817 0.16933-0.40217 0.16933-0.3175 0-0.3175-0.508 0-0.0212 0-0.15875 0-0.13758 0-0.24341 0.01058-0.11642 0.04233-0.26459 0.07408-0.254 0.32808-0.254 0.254 0 0.32808 0.10584zm-0.67733 5.1858q0-2.0743 0.21167-2.3918 0.07408-0.11642 0.17992-0.11642 0.10583 0 0.34925 0.11642-0.05292 0.89958-0.05292 1.9579 0 0 0.02117 2.3389 0 0.32808-0.14817 0.46567-0.13758 0.127-0.26458 0.127-0.11642 0-0.24342-0.0635-0.05292-1.3758-0.05292-2.4342z"/>
    <path d="m88.991 145.01q0.53975-0.8255 1.5558-0.8255t1.6192 0.8255q0.61383 0.8255 0.61383 1.8838 0 1.0478-0.66675 1.778t-1.6933 0.73025-1.4922-0.5715q-0.46567-0.58208-0.46567-1.6298 0-1.3652 0.52917-2.1908zm0.46567 0.56091q-0.13758 0.41275-0.21167 0.8255-0.0635 0.41275-0.0635 0.77259 0 0.34925 0.05292 0.64558 0.05292 0.28575 0.17992 0.5715 0.127 0.27517 0.381 0.4445 0.254 0.15875 0.60325 0.15875 0.70908 0 1.1853-0.58208 0.48683-0.58209 0.48683-1.4076t-0.4445-1.5981q-0.43392-0.78317-1.0689-0.78317-0.381 0-0.66675 0.26459-0.28575 0.26458-0.43392 0.68791z"/>
    <path d="m98.169 149.1q-0.1905 0.20108-0.43392 0.20108-0.45508 0-0.67733-0.48683-0.22225-0.48684-0.26458-1.1853-0.03175-0.6985-0.04233-1.397t-0.11642-1.1853q-0.09525-0.48683-0.37042-0.48683-0.37042 0-0.635 0.66675-0.254 0.66675-0.35983 1.4817-0.29633 2.2754-0.5715 2.5506-0.1905 0.0952-0.32808 0.0952-0.13758 0-0.23283-0.0317-0.22225-0.97367-0.28575-3.3549-0.02117-1.1853-0.04233-1.5346 0.22225-0.14817 0.381-0.14817t0.254 0.0318q0.05292 0.45508 0.05292 1.8627 0.01058 1.4076 0.02117 1.6192 0.05292-0.22225 0.127-0.71967 0.08467-0.49742 0.14817-0.81492 0.0635-0.32808 0.20108-0.762 0.13758-0.43391 0.30692-0.68791 0.16933-0.26459 0.46567-0.4445 0.29633-0.1905 0.66675-0.1905 0.49742 0 0.71967 0.45508 0.23283 0.4445 0.254 1.1112 0.02117 0.66675 0.02117 1.3547 0.01058 0.68791 0.16933 1.2594 0.16933 0.5715 0.5715 0.74084z"/>
   </g>
   <g stroke-width=".26458">
    <path d="m102.6 141.88q-0.0318 0.27517-0.13758 0.9525-0.0952 0.67733-0.14817 1.1112-0.15875 1.3018-0.15875 2.1484 0 0.84666 0.0529 1.3229 0.0635 0.46567 0.1905 0.889 0.127 0.41275 0.37042 0.65617 0.254 0.24342 0.59266 0.24342 0.48684 0 0.85725-0.52917 0.381-0.52917 0.59267-1.3547 0.21167-0.83608 0.35983-1.6828 0.15875-0.84666 0.29633-1.651 0.14817-0.80433 0.27517-1.1007 0.28575-0.1905 0.43392-0.1905 0.14816 0 0.22225 0.0317 0.0635 0.508 0.127 1.8521 0.0741 1.3335 0.1905 2.0743 0.127 0.74084 0.3175 1.2594 0.20108 0.51858 0.59266 0.86783 0.39159 0.33867 0.89959 0.33867 0.51858 0 0.84666-0.47625 0.32809-0.47625 0.47625-1.27 0.26459-1.4182 0.26459-2.921 0-1.5134-0.254-2.3601 0.26458-0.1905 0.48683-0.1905t0.381 0.34925 0.22225 0.889q0.11642 0.97366 0.11642 1.7674t-0.14817 1.5981q-0.14817 0.80433-0.46567 1.5028-0.30691 0.68792-0.86783 1.1007-0.55033 0.40216-1.2806 0.40216-0.48684-0.0106-0.87842-0.23283-0.381-0.23283-0.61383-0.53975-0.23284-0.3175-0.42334-0.8255-0.27516-0.73025-0.46566-1.8627-0.4445 1.5558-0.75142 2.1484-0.75141 1.4288-2.0638 1.4393-0.84666 0-1.27-0.61383-0.37041-0.55033-0.46566-1.5452-0.0318-0.42333-0.0318-0.96308 0-1.7674 0.5715-4.5085 0.27516-0.15875 0.43391-0.15875 0.16934 0 0.254 0.0318z"/>
    <path d="m113.01 141.61q-0.0106 0.24341-0.0106 0.53975 0 0.29633 0.0318 0.61383-0.14816 0.16933-0.40216 0.16933-0.3175 0-0.3175-0.508 0-0.0212 0-0.15875 0-0.13758 0-0.24341 0.0106-0.11642 0.0423-0.26459 0.0741-0.254 0.32808-0.254 0.254 0 0.32809 0.10584zm-0.67734 5.1858q0-2.0743 0.21167-2.3918 0.0741-0.11642 0.17992-0.11642 0.10583 0 0.34925 0.11642-0.0529 0.89958-0.0529 1.9579 0 0 0.0212 2.3389 0 0.32808-0.14817 0.46567-0.13758 0.127-0.26458 0.127-0.11642 0-0.24342-0.0635-0.0529-1.3758-0.0529-2.4342z"/>
    <path d="m118.72 149.1q-0.1905 0.20108-0.43392 0.20108-0.45508 0-0.67733-0.48683-0.22225-0.48684-0.26458-1.1853-0.0318-0.6985-0.0423-1.397-0.0106-0.6985-0.11641-1.1853-0.0953-0.48683-0.37042-0.48683-0.37042 0-0.635 0.66675-0.254 0.66675-0.35983 1.4817-0.29634 2.2754-0.5715 2.5506-0.1905 0.0952-0.32809 0.0952-0.13758 0-0.23283-0.0317-0.22225-0.97367-0.28575-3.3549-0.0212-1.1853-0.0423-1.5346 0.22225-0.14817 0.381-0.14817t0.254 0.0318q0.0529 0.45508 0.0529 1.8627 0.0106 1.4076 0.0212 1.6192 0.0529-0.22225 0.127-0.71967 0.0847-0.49742 0.14817-0.81492 0.0635-0.32808 0.20108-0.762 0.13758-0.43391 0.30692-0.68791 0.16933-0.26459 0.46566-0.4445 0.29634-0.1905 0.66675-0.1905 0.49742 0 0.71967 0.45508 0.23283 0.4445 0.254 1.1112 0.0212 0.66675 0.0212 1.3547 0.0106 0.68791 0.16933 1.2594 0.16933 0.5715 0.5715 0.74084z"/>
    <path d="m119.95 147.25q-0.0212 0.21167-0.0212 0.28575 0 0.635 0.381 0.98425 0.39158 0.34925 0.92075 0.34925t0.85725-0.14816q0.33867-0.14817 0.48683-0.3175 0.381-0.47625 0.6985-0.47625 0.11642 0 0.27517 0.0635-0.10583 0.51858-0.80433 0.9525-0.68792 0.42333-1.7357 0.42333-0.74083 0-1.2806-0.46567-0.52917-0.47625-0.52917-1.2912 0-0.81492 0.3175-1.5769 0.32808-0.77258 0.93133-1.3123 0.61384-0.55034 1.2382-0.55034 0.635 0 1.016 0.26459 0.39159 0.254 0.39159 0.75141 0 0.92075-0.8255 1.524-0.81492 0.59267-1.7357 0.59267-0.24342 0-0.58208-0.0529zm0.80433-0.34925q0.49742 0 0.889-0.3175t0.55033-0.66675q0.16934-0.34925 0.16934-0.635t-0.22225-0.49741q-0.22225-0.22225-0.51859-0.22225-0.52916 0-0.98425 0.73025-0.4445 0.73025-0.635 1.5134 0.46567 0.0952 0.75142 0.0952z"/>
    <path d="m125.45 148.36 0.0318 0.60325q0 0.23284-0.13758 0.32809-0.127 0.0847-0.26458 0.0847-0.127 0-0.26459-0.0423-0.23283-1.2277-0.35983-3.0586-0.11642-1.8309-0.13758-2.0743 0.15875-0.14816 0.32808-0.14816 0.17992 0 0.3175 0.0423 0.0423 0.30692 0.0635 1.3547t0.0529 1.3123q0.14816-0.889 0.52916-1.6616 0.21167-0.43392 0.55034-0.68792 0.34925-0.26458 0.74083-0.26458 0.40217 0 0.73025 0.35983 0.33867 0.34925 0.33867 0.635 0 0.10583-0.127 0.16933-0.127 0.0529-0.28575 0.0529-0.14817 0-0.23284-0.11642-0.0847-0.11641-0.11641-0.254-0.0318-0.14816-0.13759-0.26458-0.10583-0.11642-0.28575-0.11642-0.47625 0-0.81491 0.85725-0.51859 1.2806-0.51859 2.8892z"/>
    <path d="m131.16 144.96q0-0.762 0.48683-0.762 0.0953 0 0.1905 0.0212 0 0.127 0 0.68791 0 0.56092 0.14817 2.2437t0.14817 2.5188q0 1.3335-0.46567 1.8415t-1.5875 0.508q-1.1112 0-2.0955-0.71966 0.1905-0.23284 0.49742-0.23284 0.11641 0.0106 0.37041 0.15875 0.75142 0.4445 1.2488 0.4445 0.74083 0 1.0478-0.46566 0.30691-0.46567 0.30691-1.5663 0-0.26458-0.0529-1.905-0.0106 0.0318-0.0741 0.27517-0.0635 0.23283-0.0952 0.30692-0.0317 0.0741-0.11641 0.27516-0.0741 0.20109-0.15875 0.28575-0.0847 0.0847-0.22225 0.20109-0.23284 0.21166-0.59267 0.21166-0.34925 0-0.56092-0.0953-0.21166-0.0952-0.35983-0.29633-0.13758-0.20108-0.254-0.42333-0.10583-0.22225-0.16933-0.56092-0.0635-0.34925-0.10584-0.635-0.0318-0.28575-0.0529-0.6985-0.0106-0.41275-0.0212-0.68792 0-0.27516 0-0.6985v-0.635q0.10583-0.17991 0.381-0.17991 0.381 0 0.381 0.27516l-0.0635 1.0266q0 1.3441 0.28575 2.3178 0.28575 0.97366 0.59267 0.97366 0.23283 0 0.41275-0.254 0.17991-0.254 0.27516-0.70908 0.0953-0.46567 0.15875-0.87842 0.0635-0.41275 0.0847-0.96308 0.0317-0.83608 0.0317-1.2065z"/>
   </g>
  </g>
 </g>
</svg>
